[center][img]http://img233.imageshack.us/img233/7353/yogibearmovieposter3.jpg[/img]



[img]http://leetleech.org/images/48874973695367351744.png[/img]


Format                           : AVI
Format/Info                      : Audio Video Interleave
Format profile                   : OpenDML
File size                        : 2.26 GiB
Duration                         : 1h 20mn
Overall bit rate                 : 4 018 Kbps
Writing library                  : VirtualDub build 32839/release

Video
ID                               : 0
Format                           : MPEG-4 Visual
Format profile                   : Advanced Simple@L5
Format settings, BVOP            : Yes
Format settings, QPel            : No
Format settings, GMC             : No warppoints
Format settings, Matrix          : Custom
Codec ID                         : XVID
Codec ID/Hint                    : XviD
Duration                         : 1h 20mn
Bit rate                         : 3 366 Kbps
Width                            : 720 pixels
Height                           : 400 pixels
Display aspect ratio             : 16:9
Frame rate                       : 23.976 fps
Color space                      : YUV
Chroma subsampling               : 4:2:0
Bit depth                        : 8 bits
Scan type                        : Progressive
Bits/(Pixel*Frame)               : 0.487
Stream size                      : 1.89 GiB (84%)
Writing library                  : XviD 1.2.1 (UTC 2008-12-04)

Audio
ID                               : 1
Format                           : AC-3
Format/Info                      : Audio Coding 3
Mode extension                   : CM (complete main)
Codec ID                         : 2000
Duration                         : 1h 20mn
Bit rate mode                    : Constant
Bit rate                         : 640 Kbps
Channel(s)                       : 6 channels
Channel positions                : Front: L C R, Side: L R, LFE
Sampling rate                    : 48.0 KHz
Bit depth                        : 16 bits
Stream size                      : 368 MiB (16%)
Alignment                        : Aligned on interleaves
Interleave, duration             : 42 ms (1.00 video frame)
Interleave, preload duration     : 512 ms






[url]http://www.imdb.com/title/tt1302067/[/url]




[IMG]http://leetleech.org/images/89524873606771859129.png[/IMG]


Users: 3.8/10 (2,183 votes) 46 reviews | Critics: 102 reviews Metascore: 35/100 (based on 23 reviews from Metacritic.com)

A documentary filmmaker travels to Jellystone Park to shoot a project and soon crosses paths with Yogi Bear, his sidekick Boo-Boo, and Ranger Smith.
Director:
Eric Brevig
Writers:
Jeffrey Ventimilia, Joshua Sternin, and 1 more credit »
Stars:
Dan Aykroyd, Justin Timberlake and Anna Faris




[img]http://leetleech.org/images/95521316153253938506.png[/img]




[img]http://img850.imageshack.us/img850/5232/vlcsnap2011030404h53m29.png[/img]

[img]http://img146.imageshack.us/img146/1390/vlcsnap2011030404h53m49.png[/img]

[img]http://img829.imageshack.us/img829/4595/vlcsnap2011030404h52m40.png[/img]


Source 

720p x264 Crossbow ......Thanks



Greetz to Imagine ,Flawl3ss ,Santi ,Vision ,Kingdom, BDK, TOXiCiNK, THC, Ez, Rx,





[img]http://img411.imageshack.us/img411/6898/sig1n.jpg[/img]




